<?xml version="1.0" encoding="UTF-8"?>
<svg width="14px" height="14px" viewBox="0 0 14 14" version="1.1" xmlns="http://www.w3.org/2000/svg" xmlns:xlink="http://www.w3.org/1999/xlink">
    <!-- Generator: Sketch 51.2 (57519) - http://www.bohemiancoding.com/sketch -->
    <title>icon copy 3</title>
    <desc>Created with Sketch.</desc>
    <defs></defs>
    <g id="Page-1" stroke="none" stroke-width="1" fill="none" fill-rule="evenodd">
        <g id="Channels" transform="translate(-1363.000000, -275.000000)" fill="#5D5D5D" fill-rule="nonzero">
            <g id="icon-copy-3" transform="translate(1363.000000, 275.000000)">
                <path d="M12.0759645,5.39480532 L11.7225438,4.5370677 C11.7225438,4.5370677 12.5448143,2.6420968 12.4721848,2.56923878 L11.3833896,1.48365426 C11.3081661,1.4088092 9.45222093,2.27383262 9.45222093,2.27383262 L8.59622946,1.92080238 C8.59622946,1.92080238 7.84010366,0 7.73634712,0 L6.20010183,0 C6.0931029,0 5.39339472,1.92477646 5.39339472,1.92477646 L4.53870021,2.27913138 C4.53870021,2.27913138 2.64384637,1.45649808 2.57121679,1.53001845 L1.48436702,2.61692766 C1.40914353,2.69177272 2.27421369,4.54832758 2.27421369,4.54832758 L1.92079297,5.4047405 C1.92079297,5.4047405 0,6.16047689 0,6.26247812 L0,7.80044472 C0,7.90774471 1.92533232,8.60784406 1.92533232,8.60784406 L2.27875304,9.4629323 C2.27875304,9.4629323 1.45648245,11.3565785 1.52846355,11.4294365 L2.61661028,12.5176704 C2.69053682,12.5911908 4.54713043,11.7261674 4.54713043,11.7261674 L5.40377038,12.0805223 C5.40377038,12.0805223 6.15989617,14 6.26430119,14 L7.80054648,14 C7.90689694,14 8.60725359,12.0752235 8.60725359,12.0752235 L9.46454202,11.7208686 C9.46454202,11.7208686 11.355505,12.5435019 11.428783,12.4713062 L12.5169298,11.384397 C12.5928017,11.3082273 11.7257861,9.45299711 11.7257861,9.45299711 L12.0785584,8.59658419 C12.0785584,8.59658419 13.9999998,7.83952311 13.9999998,7.73619719 L13.9999998,6.19955528 C14.0006483,6.09291763 12.0759645,5.39480532 12.0759645,5.39480532 Z M9.24470784,6.99966883 C9.24470784,8.23626816 8.23762091,9.24303354 7.00032416,9.24303354 C5.76432436,9.24303354 4.75594047,8.23626816 4.75594047,6.99966883 C4.75594047,5.7630695 5.76432436,4.7576288 7.00032416,4.7576288 C8.23826939,4.75829115 9.24470784,5.7630695 9.24470784,6.99966883 Z" id="Shape"></path>
            </g>
        </g>
    </g>
</svg>