<?xml version="1.0" encoding="UTF-8"?>
<svg width="22px" height="29px" viewBox="0 0 22 29" version="1.1" xmlns="http://www.w3.org/2000/svg" xmlns:xlink="http://www.w3.org/1999/xlink">
    <!-- Generator: Sketch 51.2 (57519) - http://www.bohemiancoding.com/sketch -->
    <title>Group 11</title>
    <desc>Created with Sketch.</desc>
    <defs></defs>
    <g id="Page-1" stroke="none" stroke-width="1" fill="none" fill-rule="evenodd">
        <g id="Channels" transform="translate(-29.000000, -345.000000)" fill="#FFFFFF">
            <g id="Group-11" transform="translate(29.000000, 345.000000)">
                <path d="M20.1486321,22.2071781 C20.1486321,23.1072829 19.5263852,23.8607305 18.6969037,24.0501971 L18.6969037,7.04128286 C18.6969037,5.0855781 17.1321877,3.49416857 15.2089531,3.49416857 L4.73668148,3.49416857 C4.87927407,2.59489238 5.64574321,1.90552095 6.5692,1.90552095 L18.2900395,1.90552095 C19.3148049,1.90552095 20.1486321,2.75314952 20.1486321,3.79549238 L20.1486321,22.2071781 Z M15.2089531,27.34294 L3.48811358,27.34294 C2.46334815,27.34294 1.62952099,26.4950352 1.62952099,25.4529686 L1.62952099,7.04128286 C1.62952099,6.14145429 2.2517679,5.38800667 3.08124938,5.19854 C3.21243457,5.16871143 3.34823704,5.15131143 3.48811358,5.15131143 L4.71087901,5.15131143 L15.2089531,5.15131143 C16.2334469,5.15131143 17.0672741,5.99894 17.0672741,7.04128286 L17.0672741,24.0971495 L17.0672741,25.4529686 C17.0672741,25.5557114 17.0569531,25.6556924 17.0414716,25.7542924 C16.898879,26.6535686 16.1324099,27.34294 15.2089531,27.34294 Z M18.2900395,0.248378095 L6.5692,0.248378095 C4.73803951,0.248378095 3.23497778,1.69202571 3.09482963,3.51819714 C1.35628642,3.71788286 -0.000108641975,5.22091143 -0.000108641975,7.04128286 L-0.000108641975,25.4529686 C-0.000108641975,27.4086733 1.56487901,29.0000829 3.48811358,29.0000829 L15.2089531,29.0000829 C17.0401136,29.0000829 18.5431753,27.5564352 18.6830519,25.7302638 C20.4218667,25.5305781 21.7782617,24.0275495 21.7782617,22.2071781 L21.7782617,3.79549238 C21.7782617,1.83978762 20.2135457,0.248378095 18.2900395,0.248378095 Z" id="Fill-1"></path>
                <polygon id="Fill-4" points="4 17 7 17 7 15 4 15"></polygon>
                <polygon id="Fill-6" points="4 11 7 11 7 9 4 9"></polygon>
                <polygon id="Fill-7" points="9 17 15 17 15 15 9 15"></polygon>
                <polygon id="Fill-8" points="9 11 15 11 15 9 9 9"></polygon>
                <polygon id="Fill-9" points="4 23 7 23 7 21 4 21"></polygon>
                <polygon id="Fill-10" points="9 23 15 23 15 21 9 21"></polygon>
            </g>
        </g>
    </g>
</svg>