<svg id="Laag_1" data-name="Laag 1" xmlns="http://www.w3.org/2000/svg" viewBox="0 0 542.8 124.04"><title>logo</title><circle cx="41.61" cy="70.48" r="11.6"/><circle cx="95.27" cy="70.48" r="11.6"/><path d="M192.77,69.21a18.91,18.91,0,0,1,9.46,2.24,14.45,14.45,0,0,1,6,6.36,21.71,21.71,0,0,1,2,9.68A23.72,23.72,0,0,1,209.14,95a16.09,16.09,0,0,1-3.34,5.83,14.46,14.46,0,0,1-5.46,3.77,21.55,21.55,0,0,1-14.88,0,14.87,14.87,0,0,1-5.49-3.79,16.16,16.16,0,0,1-3.32-5.87,23.75,23.75,0,0,1-1.12-7.43A22.94,22.94,0,0,1,176.7,80a16,16,0,0,1,3.4-5.81,14.73,14.73,0,0,1,5.41-3.66A19.46,19.46,0,0,1,192.77,69.21ZM203,87.44a16.75,16.75,0,0,0-1.25-6.74,9.43,9.43,0,0,0-3.6-4.32,9.89,9.89,0,0,0-5.35-1.46,9.7,9.7,0,0,0-4,.81,8.55,8.55,0,0,0-3.14,2.36,11.12,11.12,0,0,0-2.08,4,17.78,17.78,0,0,0-.77,5.4,18.25,18.25,0,0,0,.77,5.47,11,11,0,0,0,2.15,4,9.2,9.2,0,0,0,3.19,2.41,9.68,9.68,0,0,0,4,.79,9.79,9.79,0,0,0,5.07-1.37,9.6,9.6,0,0,0,3.68-4.26A16.48,16.48,0,0,0,203,87.44Z" transform="translate(-26.39 -8.04)"/><path d="M220.36,73.93l8,23.77,8.05-23.94c.42-1.26.73-2.13.94-2.63a3.59,3.59,0,0,1,1-1.33,3.1,3.1,0,0,1,2-.59,3.42,3.42,0,0,1,2.93,1.68,3,3,0,0,1,.45,1.54,5.53,5.53,0,0,1-.14,1.15,9.8,9.8,0,0,1-.37,1.2c-.14.4-.29.81-.43,1.23l-8.59,23.16c-.3.89-.61,1.73-.91,2.53a10.84,10.84,0,0,1-1.07,2.1,4.71,4.71,0,0,1-1.61,1.49,4.78,4.78,0,0,1-2.45.58,4.92,4.92,0,0,1-2.46-.57,4.76,4.76,0,0,1-1.62-1.5,10.68,10.68,0,0,1-1.07-2.11c-.31-.79-.62-1.63-.92-2.52l-8.44-23c-.15-.42-.29-.83-.45-1.23a11.23,11.23,0,0,1-.39-1.31,5.83,5.83,0,0,1-.15-1.18,3.13,3.13,0,0,1,1-2.25,3.32,3.32,0,0,1,2.49-1,2.94,2.94,0,0,1,2.6,1.12A14.8,14.8,0,0,1,220.36,73.93Z" transform="translate(-26.39 -8.04)"/><path d="M272.54,75.35H256.37v8.71h14.89a3.51,3.51,0,0,1,2.46.74,2.5,2.5,0,0,1,.81,1.94,2.59,2.59,0,0,1-.8,2,3.46,3.46,0,0,1-2.47.77H256.37V99.56H273.1a3.62,3.62,0,0,1,2.55.79,2.7,2.7,0,0,1,.86,2.09,2.64,2.64,0,0,1-.86,2,3.67,3.67,0,0,1-2.55.79H253.59a4.63,4.63,0,0,1-3.38-1,4.69,4.69,0,0,1-1-3.36V74.22a6.05,6.05,0,0,1,.46-2.53,2.91,2.91,0,0,1,1.44-1.43,6.07,6.07,0,0,1,2.51-.44h19a3.7,3.7,0,0,1,2.56.76,2.57,2.57,0,0,1,.83,2,2.62,2.62,0,0,1-.83,2A3.7,3.7,0,0,1,272.54,75.35Z" transform="translate(-26.39 -8.04)"/><path d="M291.87,90.1h-2.52v11.39a4.76,4.76,0,0,1-1,3.32,3.36,3.36,0,0,1-2.59,1.06,3.31,3.31,0,0,1-2.66-1.11,5,5,0,0,1-.94-3.27V74.22a3.77,3.77,0,0,1,4.4-4.4h11.68a35.14,35.14,0,0,1,4.14.2,10.47,10.47,0,0,1,3.09.84,8.72,8.72,0,0,1,2.95,2,8.62,8.62,0,0,1,1.95,3,10.15,10.15,0,0,1,.66,3.66,8.87,8.87,0,0,1-2.23,6.34A12.86,12.86,0,0,1,302,89.26a12.94,12.94,0,0,1,3.66,3,30.31,30.31,0,0,1,3.1,4.22,31.62,31.62,0,0,1,2.13,4,8,8,0,0,1,.76,2.48,2.58,2.58,0,0,1-.44,1.39,3.1,3.1,0,0,1-1.23,1.09,3.78,3.78,0,0,1-1.79.4,3.49,3.49,0,0,1-2-.57,5.52,5.52,0,0,1-1.41-1.44c-.4-.58-.93-1.43-1.61-2.56l-2.88-4.79a26.14,26.14,0,0,0-2.77-4A6.81,6.81,0,0,0,295,90.61,8.43,8.43,0,0,0,291.87,90.1ZM296,75.21h-6.63V85h6.43a18.54,18.54,0,0,0,4.36-.44A5.11,5.11,0,0,0,302.83,83a4.36,4.36,0,0,0,.93-3,4.66,4.66,0,0,0-.74-2.6,4.56,4.56,0,0,0-2.08-1.68A15.16,15.16,0,0,0,296,75.21Z" transform="translate(-26.39 -8.04)"/><path d="M325.07,73.56V83.72h15.5V73.56a4.74,4.74,0,0,1,1-3.26,3.28,3.28,0,0,1,2.58-1.09,3.41,3.41,0,0,1,2.62,1.08,4.64,4.64,0,0,1,1,3.27v27.93a4.69,4.69,0,0,1-1,3.29,3.4,3.4,0,0,1-2.61,1.09,3.28,3.28,0,0,1-2.59-1.1,4.81,4.81,0,0,1-1-3.28V89.57h-15.5v11.92a4.65,4.65,0,0,1-1,3.29,3.38,3.38,0,0,1-2.61,1.09,3.26,3.26,0,0,1-2.58-1.1,4.81,4.81,0,0,1-1-3.28V73.56a4.84,4.84,0,0,1,.95-3.26,3.28,3.28,0,0,1,2.6-1.09,3.43,3.43,0,0,1,2.63,1.08A4.64,4.64,0,0,1,325.07,73.56Z" transform="translate(-26.39 -8.04)"/><path d="M371.06,69.21a18.93,18.93,0,0,1,9.47,2.24,14.51,14.51,0,0,1,6,6.36,21.71,21.71,0,0,1,2,9.68A23.72,23.72,0,0,1,387.44,95a16.24,16.24,0,0,1-3.34,5.83,14.5,14.5,0,0,1-5.47,3.77,21.52,21.52,0,0,1-14.87,0,14.87,14.87,0,0,1-5.49-3.79A16.16,16.16,0,0,1,355,94.87a23.75,23.75,0,0,1-1.13-7.43A22.67,22.67,0,0,1,355,80a16.09,16.09,0,0,1,3.39-5.81,14.86,14.86,0,0,1,5.42-3.66A19.44,19.44,0,0,1,371.06,69.21Zm10.21,18.23A16.58,16.58,0,0,0,380,80.7a9.42,9.42,0,0,0-3.59-4.32,9.9,9.9,0,0,0-5.36-1.46,9.65,9.65,0,0,0-4,.81,8.66,8.66,0,0,0-3.15,2.36,11.28,11.28,0,0,0-2.08,4,17.79,17.79,0,0,0-.76,5.4,18.26,18.26,0,0,0,.76,5.47A11.31,11.31,0,0,0,364,97a9.24,9.24,0,0,0,3.2,2.41,9.68,9.68,0,0,0,4,.79,9.79,9.79,0,0,0,5.07-1.37,9.52,9.52,0,0,0,3.67-4.26A16.48,16.48,0,0,0,381.27,87.44Z" transform="translate(-26.39 -8.04)"/><path d="M410.29,69.21a19,19,0,0,1,9.47,2.24,14.48,14.48,0,0,1,6,6.36,21.71,21.71,0,0,1,2,9.68A23.72,23.72,0,0,1,426.66,95a16,16,0,0,1-3.34,5.83,14.46,14.46,0,0,1-5.46,3.77,21.55,21.55,0,0,1-14.88,0,14.75,14.75,0,0,1-5.48-3.79,16,16,0,0,1-3.33-5.87,23.75,23.75,0,0,1-1.12-7.43A22.94,22.94,0,0,1,394.22,80a16,16,0,0,1,3.4-5.81A14.82,14.82,0,0,1,403,70.48,19.46,19.46,0,0,1,410.29,69.21Zm10.2,18.23a16.75,16.75,0,0,0-1.25-6.74,9.43,9.43,0,0,0-3.6-4.32,9.89,9.89,0,0,0-5.35-1.46,9.7,9.7,0,0,0-4,.81,8.63,8.63,0,0,0-3.14,2.36,11.28,11.28,0,0,0-2.08,4,17.78,17.78,0,0,0-.77,5.4,18.25,18.25,0,0,0,.77,5.47,11.16,11.16,0,0,0,2.15,4,9.2,9.2,0,0,0,3.19,2.41,10.15,10.15,0,0,0,9-.58,9.54,9.54,0,0,0,3.68-4.26A16.48,16.48,0,0,0,420.49,87.44Z" transform="translate(-26.39 -8.04)"/><path d="M443.56,90.1h-2.51v11.39a4.76,4.76,0,0,1-1,3.32,3.38,3.38,0,0,1-2.59,1.06,3.29,3.29,0,0,1-2.66-1.11,4.93,4.93,0,0,1-.94-3.27V74.22a3.77,3.77,0,0,1,4.4-4.4H450a34.84,34.84,0,0,1,4.13.2,10.46,10.46,0,0,1,3.1.84,8.93,8.93,0,0,1,4.9,5,10.15,10.15,0,0,1,.66,3.66,8.88,8.88,0,0,1-2.24,6.34,12.83,12.83,0,0,1-6.78,3.36,12.91,12.91,0,0,1,3.65,3,30.38,30.38,0,0,1,3.11,4.22,31.62,31.62,0,0,1,2.13,4,8.28,8.28,0,0,1,.76,2.48,2.52,2.52,0,0,1-.45,1.39,3.07,3.07,0,0,1-1.22,1.09,3.81,3.81,0,0,1-1.79.4,3.47,3.47,0,0,1-2-.57,5.56,5.56,0,0,1-1.42-1.44c-.39-.58-.93-1.43-1.6-2.56L452,96.51a26.87,26.87,0,0,0-2.77-4,6.81,6.81,0,0,0-2.48-1.89A8.48,8.48,0,0,0,443.56,90.1Zm4.11-14.89h-6.62V85h6.43a18.39,18.39,0,0,0,4.35-.44,5.1,5.1,0,0,0,2.7-1.53,4.36,4.36,0,0,0,.93-3,4.59,4.59,0,0,0-.75-2.6,4.51,4.51,0,0,0-2.08-1.68A15.12,15.12,0,0,0,447.67,75.21Z" transform="translate(-26.39 -8.04)"/><path d="M484.67,105.27H473.84a4.46,4.46,0,0,1-3.35-1.06,4.7,4.7,0,0,1-1-3.34V74.22a4.63,4.63,0,0,1,1-3.38,4.57,4.57,0,0,1,3.32-1h11.49a26.8,26.8,0,0,1,4.4.31,9.39,9.39,0,0,1,3.34,1.21,8.89,8.89,0,0,1,2.22,1.9,8.42,8.42,0,0,1,1.48,2.54,8.63,8.63,0,0,1,.5,2.93q0,5.33-5.32,7.79,7,2.22,7,8.66a9.74,9.74,0,0,1-1.52,5.35,9.13,9.13,0,0,1-4.11,3.52,14.83,14.83,0,0,1-3.73,1A38.9,38.9,0,0,1,484.67,105.27Zm-8-30.06v9.16h6.58a13.43,13.43,0,0,0,4.14-.5,4,4,0,0,0,2.24-1.94,4.38,4.38,0,0,0,.61-2.27c0-1.79-.64-3-1.91-3.57a14.61,14.61,0,0,0-5.83-.88Zm7.47,14.31h-7.47V99.87h7.71q7.29,0,7.28-5.24a4.31,4.31,0,0,0-1.88-3.9A10.65,10.65,0,0,0,484.14,89.52Z" transform="translate(-26.39 -8.04)"/><path d="M520.75,69.21a18.93,18.93,0,0,1,9.47,2.24,14.51,14.51,0,0,1,6,6.36,21.71,21.71,0,0,1,2,9.68A23.72,23.72,0,0,1,537.13,95a16.24,16.24,0,0,1-3.34,5.83,14.58,14.58,0,0,1-5.47,3.77,21.52,21.52,0,0,1-14.87,0,14.87,14.87,0,0,1-5.49-3.79,16,16,0,0,1-3.32-5.87,23.75,23.75,0,0,1-1.13-7.43A22.94,22.94,0,0,1,504.68,80a16.25,16.25,0,0,1,3.4-5.81,14.86,14.86,0,0,1,5.42-3.66A19.44,19.44,0,0,1,520.75,69.21ZM531,87.44a16.58,16.58,0,0,0-1.26-6.74,9.42,9.42,0,0,0-3.59-4.32,9.93,9.93,0,0,0-5.36-1.46,9.65,9.65,0,0,0-4,.81,8.66,8.66,0,0,0-3.15,2.36,11.28,11.28,0,0,0-2.08,4,17.79,17.79,0,0,0-.76,5.4,18.26,18.26,0,0,0,.76,5.47,11.17,11.17,0,0,0,2.16,4,9.11,9.11,0,0,0,3.19,2.41,9.68,9.68,0,0,0,4,.79,9.79,9.79,0,0,0,5.07-1.37,9.52,9.52,0,0,0,3.67-4.26A16.48,16.48,0,0,0,531,87.44Z" transform="translate(-26.39 -8.04)"/><path d="M565.52,75.74h-7.84v25.75a4.76,4.76,0,0,1-1,3.31,3.62,3.62,0,0,1-5.16,0,4.69,4.69,0,0,1-1-3.29V75.74h-7.83a4,4,0,0,1-2.74-.81,3,3,0,0,1,0-4.32,4,4,0,0,1,2.7-.79h22.83a4,4,0,0,1,2.76.82,2.75,2.75,0,0,1,.91,2.15,2.72,2.72,0,0,1-.92,2.14A4.05,4.05,0,0,1,565.52,75.74Z" transform="translate(-26.39 -8.04)"/><path d="M153.83,63.16l.78-.54c-.25-.46-.51-.91-.79-1.36Z" transform="translate(-26.39 -8.04)"/><path d="M211.6,35.21c-.46-13.6-12.09-24.66-25.93-24.66h-35.2A25.59,25.59,0,0,0,125,36.91c0,.07,0,.13,0,.19h-4.69V24A8.21,8.21,0,1,0,115,24V37.09H77.65V24a8.2,8.2,0,1,0-5.28,0V37.09H66.86a40.58,40.58,0,0,0-40.45,41.8A39.78,39.78,0,0,0,39,106.7,41.26,41.26,0,0,0,65.25,118v10.3a3.82,3.82,0,0,0,2,3.39,3.82,3.82,0,0,0,3.94-.23L90.84,118h34.47a40.14,40.14,0,0,0,28.58-11.89,40.58,40.58,0,0,0,11.87-29.94,39.69,39.69,0,0,0-2.67-13l2.27-1.54h20.73A25.59,25.59,0,0,0,211.6,35.21Zm-52.38,41.2a34,34,0,0,1-33.91,35.07h-35a4.89,4.89,0,0,0-2.77.85L71.78,123.12v-8.34l0-3.3H67.52c-18.47,0-34-14.72-34.57-32.81a34,34,0,0,1,33.91-35h57.77c.51,0,1,0,1.51,0A26.15,26.15,0,0,0,148.62,61.5V67a3.21,3.21,0,0,0,1.71,2.83,3.28,3.28,0,0,0,1.49.37,3.2,3.2,0,0,0,1.81-.56L157.49,67A32.58,32.58,0,0,1,159.22,76.41Zm40.85-26.36a19.64,19.64,0,0,1-14,5.83H164.78a3.87,3.87,0,0,0-2.18.67l-2,1.36-5.47,3.74-.79.54V55.88h-3.45a20.43,20.43,0,0,1-18.22-11.3,18.91,18.91,0,0,1-1.93-7c0-.27,0-.54,0-.81a19.87,19.87,0,0,1,19.79-20.46h35.2c10.79,0,19.86,8.59,20.21,19.13A19.58,19.58,0,0,1,200.07,50.05Z" transform="translate(-26.39 -8.04)"/><path d="M154,32.76h-4.61l-.55,3.14a5.44,5.44,0,0,1,2.54-.73,4.39,4.39,0,0,1,1.74.34,4.7,4.7,0,0,1,1.43,1,4.41,4.41,0,0,1,1,1.46,4.8,4.8,0,0,1,.35,1.82,5.25,5.25,0,0,1-.63,2.56,4.67,4.67,0,0,1-1.82,1.84,6.2,6.2,0,0,1-5.57,0,4,4,0,0,1-1.53-1.47,3.09,3.09,0,0,1-.46-1.46,1,1,0,0,1,.32-.71,1,1,0,0,1,.79-.34,1.31,1.31,0,0,1,1.22.94,3.21,3.21,0,0,0,1,1.34,2.47,2.47,0,0,0,1.48.48,2.22,2.22,0,0,0,1.31-.38,2.49,2.49,0,0,0,.87-1.07,3.67,3.67,0,0,0,.31-1.55,3.52,3.52,0,0,0-.33-1.59,2.33,2.33,0,0,0-.89-1,2.45,2.45,0,0,0-1.23-.32,2.6,2.6,0,0,0-1.19.2,11.54,11.54,0,0,0-1,.72,2,2,0,0,1-1.11.51,1.22,1.22,0,0,1-.85-.35,1.07,1.07,0,0,1-.37-.78s0-.25.11-.66l.82-4.65a2.27,2.27,0,0,1,.5-1.22,1.65,1.65,0,0,1,1.21-.38H154c1,0,1.51.39,1.51,1.16a1,1,0,0,1-.37.81A1.63,1.63,0,0,1,154,32.76Z" transform="translate(-26.39 -8.04)"/><path d="M162.66,41.83l3.19-4.65L163.16,33a7.4,7.4,0,0,1-.56-1,2,2,0,0,1-.19-.83,1,1,0,0,1,.36-.73,1.27,1.27,0,0,1,.89-.33,1.24,1.24,0,0,1,.94.36,9.12,9.12,0,0,1,.93,1.31l2.13,3.46,2.28-3.46c.19-.29.35-.54.49-.74a4.15,4.15,0,0,1,.38-.52,1.17,1.17,0,0,1,.41-.3,1.25,1.25,0,0,1,.53-.11,1.24,1.24,0,0,1,.89.33,1,1,0,0,1,.34.77,3.5,3.5,0,0,1-.74,1.77l-2.81,4.2,3,4.65a7.63,7.63,0,0,1,.59,1,1.78,1.78,0,0,1,.19.77,1.23,1.23,0,0,1-.17.62,1.15,1.15,0,0,1-.46.44,1.4,1.4,0,0,1-.68.17,1.31,1.31,0,0,1-.69-.17,1.43,1.43,0,0,1-.46-.42c-.12-.17-.33-.5-.65-1l-2.51-4L165,43.38l-.44.68a2.23,2.23,0,0,1-.32.38,1.3,1.3,0,0,1-.43.29,1.57,1.57,0,0,1-.6.11A1.15,1.15,0,0,1,162,43.59,3.36,3.36,0,0,1,162.66,41.83Z" transform="translate(-26.39 -8.04)"/><path d="M187.83,32.76h-4.62l-.55,3.14a5.47,5.47,0,0,1,2.54-.73,4.4,4.4,0,0,1,1.75.34,4.65,4.65,0,0,1,1.42,1,4.41,4.41,0,0,1,1,1.46,4.61,4.61,0,0,1,.35,1.82,5.25,5.25,0,0,1-.63,2.56,4.67,4.67,0,0,1-1.82,1.84,5.46,5.46,0,0,1-2.74.68,5.52,5.52,0,0,1-2.83-.64,4,4,0,0,1-1.53-1.47,3.18,3.18,0,0,1-.45-1.46,1,1,0,0,1,.31-.71,1,1,0,0,1,.79-.34,1.3,1.3,0,0,1,1.22.94,3.32,3.32,0,0,0,1.05,1.34,2.44,2.44,0,0,0,1.47.48,2.27,2.27,0,0,0,1.32-.38,2.64,2.64,0,0,0,.87-1.07A3.83,3.83,0,0,0,187,40a3.52,3.52,0,0,0-.33-1.59,2.31,2.31,0,0,0-.88-1,2.46,2.46,0,0,0-1.24-.32,2.65,2.65,0,0,0-1.19.2,11.54,11.54,0,0,0-1,.72,2,2,0,0,1-1.11.51,1.18,1.18,0,0,1-.84-.35,1,1,0,0,1-.37-.78s0-.25.1-.66l.82-4.65a2.2,2.2,0,0,1,.51-1.22,1.61,1.61,0,0,1,1.2-.38h5.13c1,0,1.51.39,1.51,1.16a1,1,0,0,1-.37.81A1.6,1.6,0,0,1,187.83,32.76Z" transform="translate(-26.39 -8.04)"/></svg>