<svg width="542.8" height="124.04" xmlns="http://www.w3.org/2000/svg">
 <title>logo</title>

 <g>
  <title>background</title>
  <rect fill="none" id="canvas_background" height="402" width="582" y="-1" x="-1"/>
 </g>
 <g>
  <title>Layer 1</title>
  <circle fill="#ffffff" id="svg_1" r="11.6" cy="70.48" cx="41.61"/>
  <circle fill="#ffffff" id="svg_2" r="11.6" cy="70.48" cx="95.27"/>
  <path fill="#ffffff" id="svg_3" d="m166.380001,61.17a18.91,18.91 0 0 1 9.46,2.24a14.45,14.45 0 0 1 6,6.36a21.71,21.71 0 0 1 2,9.68a23.72,23.72 0 0 1 -1.09,7.51a16.09,16.09 0 0 1 -3.34,5.83a14.46,14.46 0 0 1 -5.46,3.77a21.55,21.55 0 0 1 -14.88,0a14.87,14.87 0 0 1 -5.49,-3.79a16.16,16.16 0 0 1 -3.32,-5.87a23.75,23.75 0 0 1 -1.12,-7.43a22.94,22.94 0 0 1 1.17,-7.51a16,16 0 0 1 3.4,-5.81a14.73,14.73 0 0 1 5.41,-3.66a19.46,19.46 0 0 1 7.26,-1.32zm10.23,18.23a16.75,16.75 0 0 0 -1.25,-6.74a9.43,9.43 0 0 0 -3.6,-4.32a9.89,9.89 0 0 0 -5.35,-1.46a9.7,9.7 0 0 0 -4,0.81a8.55,8.55 0 0 0 -3.14,2.36a11.12,11.12 0 0 0 -2.08,4a17.78,17.78 0 0 0 -0.77,5.4a18.25,18.25 0 0 0 0.77,5.47a11,11 0 0 0 2.15,4a9.2,9.2 0 0 0 3.19,2.41a9.68,9.68 0 0 0 4,0.79a9.79,9.79 0 0 0 5.07,-1.37a9.6,9.6 0 0 0 3.68,-4.26a16.48,16.48 0 0 0 1.33,-7.09z"/>
  <path fill="#ffffff" id="svg_4" d="m193.970001,65.89l8,23.77l8.05,-23.94c0.42,-1.26 0.73,-2.13 0.94,-2.63a3.59,3.59 0 0 1 1,-1.33a3.1,3.1 0 0 1 2,-0.59a3.42,3.42 0 0 1 2.93,1.68a3,3 0 0 1 0.45,1.54a5.53,5.53 0 0 1 -0.14,1.15a9.8,9.8 0 0 1 -0.37,1.2c-0.14,0.4 -0.29,0.81 -0.43,1.23l-8.59,23.16c-0.3,0.89 -0.61,1.73 -0.91,2.53a10.84,10.84 0 0 1 -1.07,2.1a4.71,4.71 0 0 1 -1.61,1.49a4.78,4.78 0 0 1 -2.45,0.58a4.92,4.92 0 0 1 -2.46,-0.57a4.76,4.76 0 0 1 -1.62,-1.5a10.68,10.68 0 0 1 -1.07,-2.11c-0.31,-0.79 -0.62,-1.63 -0.92,-2.52l-8.44,-23c-0.15,-0.42 -0.29,-0.83 -0.45,-1.23a11.23,11.23 0 0 1 -0.39,-1.31a5.83,5.83 0 0 1 -0.15,-1.18a3.13,3.13 0 0 1 1,-2.25a3.32,3.32 0 0 1 2.49,-1a2.94,2.94 0 0 1 2.6,1.12a14.8,14.8 0 0 1 1.61,3.61z"/>
  <path fill="#ffffff" id="svg_5" d="m246.150001,67.31l-16.17,0l0,8.71l14.89,0a3.51,3.51 0 0 1 2.46,0.74a2.5,2.5 0 0 1 0.81,1.94a2.59,2.59 0 0 1 -0.8,2a3.46,3.46 0 0 1 -2.47,0.77l-14.89,0l0,10.05l16.73,0a3.62,3.62 0 0 1 2.55,0.79a2.7,2.7 0 0 1 0.86,2.09a2.64,2.64 0 0 1 -0.86,2a3.67,3.67 0 0 1 -2.55,0.79l-19.51,0a4.63,4.63 0 0 1 -3.38,-1a4.69,4.69 0 0 1 -1,-3.36l0,-26.65a6.05,6.05 0 0 1 0.46,-2.53a2.91,2.91 0 0 1 1.44,-1.43a6.07,6.07 0 0 1 2.51,-0.44l19,0a3.7,3.7 0 0 1 2.56,0.76a2.57,2.57 0 0 1 0.83,2a2.62,2.62 0 0 1 -0.83,2a3.7,3.7 0 0 1 -2.64,0.77z"/>
  <path fill="#ffffff" id="svg_6" d="m265.480001,82.06l-2.52,0l0,11.39a4.76,4.76 0 0 1 -1,3.32a3.36,3.36 0 0 1 -2.59,1.06a3.31,3.31 0 0 1 -2.66,-1.11a5,5 0 0 1 -0.94,-3.27l0,-27.27a3.77,3.77 0 0 1 4.4,-4.4l11.68,0a35.14,35.14 0 0 1 4.14,0.2a10.47,10.47 0 0 1 3.09,0.84a8.72,8.72 0 0 1 2.95,2a8.62,8.62 0 0 1 1.95,3a10.15,10.15 0 0 1 0.66,3.66a8.87,8.87 0 0 1 -2.23,6.34a12.86,12.86 0 0 1 -6.8,3.4a12.94,12.94 0 0 1 3.66,3a30.31,30.31 0 0 1 3.1,4.22a31.62,31.62 0 0 1 2.13,4a8,8 0 0 1 0.76,2.48a2.58,2.58 0 0 1 -0.44,1.39a3.1,3.1 0 0 1 -1.23,1.09a3.78,3.78 0 0 1 -1.79,0.4a3.49,3.49 0 0 1 -2,-0.57a5.52,5.52 0 0 1 -1.41,-1.44c-0.4,-0.58 -0.93,-1.43 -1.61,-2.56l-2.88,-4.79a26.14,26.14 0 0 0 -2.77,-4a6.81,6.81 0 0 0 -2.52,-1.87a8.43,8.43 0 0 0 -3.13,-0.51zm4.13,-14.89l-6.63,0l0,9.79l6.43,0a18.54,18.54 0 0 0 4.36,-0.44a5.11,5.11 0 0 0 2.67,-1.56a4.36,4.36 0 0 0 0.93,-3a4.66,4.66 0 0 0 -0.74,-2.6a4.56,4.56 0 0 0 -2.08,-1.68a15.16,15.16 0 0 0 -4.94,-0.51z"/>
  <path fill="#ffffff" id="svg_7" d="m298.680001,65.52l0,10.16l15.5,0l0,-10.16a4.74,4.74 0 0 1 1,-3.26a3.28,3.28 0 0 1 2.58,-1.09a3.41,3.41 0 0 1 2.62,1.08a4.64,4.64 0 0 1 1,3.27l0,27.93a4.69,4.69 0 0 1 -1,3.29a3.4,3.4 0 0 1 -2.61,1.09a3.28,3.28 0 0 1 -2.59,-1.1a4.81,4.81 0 0 1 -1,-3.28l0,-11.92l-15.5,0l0,11.92a4.65,4.65 0 0 1 -1,3.29a3.38,3.38 0 0 1 -2.61,1.09a3.26,3.26 0 0 1 -2.58,-1.1a4.81,4.81 0 0 1 -1,-3.28l0,-27.93a4.84,4.84 0 0 1 0.95,-3.26a3.28,3.28 0 0 1 2.6,-1.09a3.43,3.43 0 0 1 2.63,1.08a4.64,4.64 0 0 1 1.01,3.27z"/>
  <path fill="#ffffff" id="svg_8" d="m344.670001,61.17a18.93,18.93 0 0 1 9.47,2.24a14.51,14.51 0 0 1 6,6.36a21.71,21.71 0 0 1 2,9.68a23.72,23.72 0 0 1 -1.09,7.51a16.24,16.24 0 0 1 -3.34,5.83a14.5,14.5 0 0 1 -5.47,3.77a21.52,21.52 0 0 1 -14.87,0a14.87,14.87 0 0 1 -5.49,-3.79a16.16,16.16 0 0 1 -3.27,-5.94a23.75,23.75 0 0 1 -1.13,-7.43a22.67,22.67 0 0 1 1.13,-7.44a16.09,16.09 0 0 1 3.39,-5.81a14.86,14.86 0 0 1 5.42,-3.66a19.44,19.44 0 0 1 7.25,-1.32zm10.21,18.23a16.58,16.58 0 0 0 -1.27,-6.74a9.42,9.42 0 0 0 -3.59,-4.32a9.9,9.9 0 0 0 -5.36,-1.46a9.65,9.65 0 0 0 -4,0.81a8.66,8.66 0 0 0 -3.15,2.36a11.28,11.28 0 0 0 -2.08,4a17.79,17.79 0 0 0 -0.76,5.4a18.26,18.26 0 0 0 0.76,5.47a11.31,11.31 0 0 0 2.18,4.04a9.24,9.24 0 0 0 3.2,2.41a9.68,9.68 0 0 0 4,0.79a9.79,9.79 0 0 0 5.07,-1.37a9.52,9.52 0 0 0 3.67,-4.26a16.48,16.48 0 0 0 1.33,-7.13z"/>
  <path fill="#ffffff" id="svg_9" d="m383.900001,61.17a19,19 0 0 1 9.47,2.24a14.48,14.48 0 0 1 6,6.36a21.71,21.71 0 0 1 2,9.68a23.72,23.72 0 0 1 -1.1,7.51a16,16 0 0 1 -3.34,5.83a14.46,14.46 0 0 1 -5.46,3.77a21.55,21.55 0 0 1 -14.88,0a14.75,14.75 0 0 1 -5.48,-3.79a16,16 0 0 1 -3.33,-5.87a23.75,23.75 0 0 1 -1.12,-7.43a22.94,22.94 0 0 1 1.17,-7.51a16,16 0 0 1 3.4,-5.81a14.82,14.82 0 0 1 5.38,-3.71a19.46,19.46 0 0 1 7.29,-1.27zm10.2,18.23a16.75,16.75 0 0 0 -1.25,-6.74a9.43,9.43 0 0 0 -3.6,-4.32a9.89,9.89 0 0 0 -5.35,-1.46a9.7,9.7 0 0 0 -4,0.81a8.63,8.63 0 0 0 -3.14,2.36a11.28,11.28 0 0 0 -2.08,4a17.78,17.78 0 0 0 -0.77,5.4a18.25,18.25 0 0 0 0.77,5.47a11.16,11.16 0 0 0 2.15,4a9.2,9.2 0 0 0 3.19,2.41a10.15,10.15 0 0 0 9,-0.58a9.54,9.54 0 0 0 3.68,-4.26a16.48,16.48 0 0 0 1.4,-7.09z"/>
  <path fill="#ffffff" id="svg_10" d="m417.170001,82.06l-2.51,0l0,11.39a4.76,4.76 0 0 1 -1,3.32a3.38,3.38 0 0 1 -2.59,1.06a3.29,3.29 0 0 1 -2.66,-1.11a4.93,4.93 0 0 1 -0.94,-3.27l0,-27.27a3.77,3.77 0 0 1 4.4,-4.4l11.74,0a34.84,34.84 0 0 1 4.13,0.2a10.46,10.46 0 0 1 3.1,0.84a8.93,8.93 0 0 1 4.9,5a10.15,10.15 0 0 1 0.66,3.66a8.88,8.88 0 0 1 -2.24,6.34a12.83,12.83 0 0 1 -6.78,3.36a12.91,12.91 0 0 1 3.65,3a30.38,30.38 0 0 1 3.11,4.22a31.62,31.62 0 0 1 2.13,4a8.28,8.28 0 0 1 0.76,2.48a2.52,2.52 0 0 1 -0.45,1.39a3.07,3.07 0 0 1 -1.22,1.09a3.81,3.81 0 0 1 -1.79,0.4a3.47,3.47 0 0 1 -2,-0.57a5.56,5.56 0 0 1 -1.42,-1.44c-0.39,-0.58 -0.93,-1.43 -1.6,-2.56l-2.94,-4.72a26.87,26.87 0 0 0 -2.77,-4a6.81,6.81 0 0 0 -2.48,-1.89a8.48,8.48 0 0 0 -3.19,-0.52zm4.11,-14.89l-6.62,0l0,9.79l6.43,0a18.39,18.39 0 0 0 4.35,-0.44a5.1,5.1 0 0 0 2.7,-1.53a4.36,4.36 0 0 0 0.93,-3a4.59,4.59 0 0 0 -0.75,-2.6a4.51,4.51 0 0 0 -2.08,-1.68a15.12,15.12 0 0 0 -4.96,-0.54z"/>
  <path fill="#ffffff" id="svg_11" d="m458.280001,97.23l-10.83,0a4.46,4.46 0 0 1 -3.35,-1.06a4.7,4.7 0 0 1 -1,-3.34l0,-26.65a4.63,4.63 0 0 1 1,-3.38a4.57,4.57 0 0 1 3.32,-1l11.49,0a26.8,26.8 0 0 1 4.4,0.31a9.39,9.39 0 0 1 3.34,1.21a8.89,8.89 0 0 1 2.22,1.9a8.42,8.42 0 0 1 1.48,2.54a8.63,8.63 0 0 1 0.5,2.93q0,5.33 -5.32,7.79q7,2.22 7,8.66a9.74,9.74 0 0 1 -1.52,5.35a9.13,9.13 0 0 1 -4.11,3.52a14.83,14.83 0 0 1 -3.73,1a38.9,38.9 0 0 1 -4.89,0.22zm-8,-30.06l0,9.16l6.58,0a13.43,13.43 0 0 0 4.14,-0.5a4,4 0 0 0 2.24,-1.94a4.38,4.38 0 0 0 0.61,-2.27c0,-1.79 -0.64,-3 -1.91,-3.57a14.61,14.61 0 0 0 -5.83,-0.88l-5.83,0zm7.47,14.31l-7.47,0l0,10.35l7.71,0q7.29,0 7.28,-5.24a4.31,4.31 0 0 0 -1.88,-3.9a10.65,10.65 0 0 0 -5.64,-1.21z"/>
  <path fill="#ffffff" id="svg_12" d="m494.360001,61.17a18.93,18.93 0 0 1 9.47,2.24a14.51,14.51 0 0 1 6,6.36a21.71,21.71 0 0 1 2,9.68a23.72,23.72 0 0 1 -1.09,7.51a16.24,16.24 0 0 1 -3.34,5.83a14.58,14.58 0 0 1 -5.47,3.77a21.52,21.52 0 0 1 -14.87,0a14.87,14.87 0 0 1 -5.49,-3.79a16,16 0 0 1 -3.32,-5.87a23.75,23.75 0 0 1 -1.13,-7.43a22.94,22.94 0 0 1 1.17,-7.51a16.25,16.25 0 0 1 3.4,-5.81a14.86,14.86 0 0 1 5.42,-3.66a19.44,19.44 0 0 1 7.25,-1.32zm10.25,18.23a16.58,16.58 0 0 0 -1.26,-6.74a9.42,9.42 0 0 0 -3.59,-4.32a9.93,9.93 0 0 0 -5.36,-1.46a9.65,9.65 0 0 0 -4,0.81a8.66,8.66 0 0 0 -3.15,2.36a11.28,11.28 0 0 0 -2.08,4a17.79,17.79 0 0 0 -0.76,5.4a18.26,18.26 0 0 0 0.76,5.47a11.17,11.17 0 0 0 2.16,4a9.11,9.11 0 0 0 3.19,2.41a9.68,9.68 0 0 0 4,0.79a9.79,9.79 0 0 0 5.07,-1.37a9.52,9.52 0 0 0 3.67,-4.26a16.48,16.48 0 0 0 1.35,-7.09z"/>
  <path fill="#ffffff" id="svg_13" d="m539.130001,67.7l-7.84,0l0,25.75a4.76,4.76 0 0 1 -1,3.31a3.62,3.62 0 0 1 -5.16,0a4.69,4.69 0 0 1 -1,-3.29l0,-25.77l-7.83,0a4,4 0 0 1 -2.74,-0.81a3,3 0 0 1 0,-4.32a4,4 0 0 1 2.7,-0.79l22.83,0a4,4 0 0 1 2.76,0.82a2.75,2.75 0 0 1 0.91,2.15a2.72,2.72 0 0 1 -0.92,2.14a4.05,4.05 0 0 1 -2.71,0.81z"/>
  <path fill="#ffffff" id="svg_14" d="m127.440001,55.12l0.78,-0.54c-0.25,-0.46 -0.51,-0.91 -0.79,-1.36l0.01,1.9z"/>
  <path fill="#ffffff" id="svg_15" d="m185.210001,27.17c-0.46,-13.6 -12.09,-24.66 -25.93,-24.66l-35.2,0a25.59,25.59 0 0 0 -25.47,26.36c0,0.07 0,0.13 0,0.19l-4.69,0l0,-13.1a8.21,8.21 0 1 0 -5.31,0l0,13.09l-37.35,0l0,-13.09a8.2,8.2 0 1 0 -5.28,0l0,13.09l-5.51,0a40.58,40.58 0 0 0 -40.45,41.8a39.78,39.78 0 0 0 12.59,27.81a41.26,41.26 0 0 0 26.25,11.3l0,10.3a3.82,3.82 0 0 0 2,3.39a3.82,3.82 0 0 0 3.94,-0.23l19.65,-13.46l34.47,0a40.14,40.14 0 0 0 28.58,-11.89a40.58,40.58 0 0 0 11.87,-29.94a39.69,39.69 0 0 0 -2.67,-13l2.27,-1.54l20.73,0a25.59,25.59 0 0 0 25.51,-26.42zm-52.38,41.2a34,34 0 0 1 -33.91,35.07l-35,0a4.89,4.89 0 0 0 -2.77,0.85l-15.76,10.79l0,-8.34l0,-3.3l-4.26,0c-18.47,0 -34,-14.72 -34.57,-32.81a34,34 0 0 1 33.91,-35l57.77,0c0.51,0 1,0 1.51,0a26.15,26.15 0 0 0 22.48,17.83l0,5.5a3.21,3.21 0 0 0 1.71,2.83a3.28,3.28 0 0 0 1.49,0.37a3.2,3.2 0 0 0 1.81,-0.56l3.86,-2.64a32.58,32.58 0 0 1 1.73,9.41zm40.85,-26.36a19.64,19.64 0 0 1 -14,5.83l-21.29,0a3.87,3.87 0 0 0 -2.18,0.67l-2,1.36l-5.47,3.74l-0.79,0.54l0,-6.31l-3.45,0a20.43,20.43 0 0 1 -18.22,-11.3a18.91,18.91 0 0 1 -1.93,-7c0,-0.27 0,-0.54 0,-0.81a19.87,19.87 0 0 1 19.79,-20.46l35.2,0c10.79,0 19.86,8.59 20.21,19.13a19.58,19.58 0 0 1 -5.87,14.61z"/>
  <path fill="#ffffff" id="svg_16" d="m127.610001,24.72l-4.61,0l-0.55,3.14a5.44,5.44 0 0 1 2.54,-0.73a4.39,4.39 0 0 1 1.74,0.34a4.7,4.7 0 0 1 1.43,1a4.41,4.41 0 0 1 1,1.46a4.8,4.8 0 0 1 0.35,1.82a5.25,5.25 0 0 1 -0.63,2.56a4.67,4.67 0 0 1 -1.82,1.84a6.2,6.2 0 0 1 -5.57,0a4,4 0 0 1 -1.53,-1.47a3.09,3.09 0 0 1 -0.46,-1.46a1,1 0 0 1 0.32,-0.71a1,1 0 0 1 0.79,-0.34a1.31,1.31 0 0 1 1.22,0.94a3.21,3.21 0 0 0 1,1.34a2.47,2.47 0 0 0 1.48,0.48a2.22,2.22 0 0 0 1.31,-0.38a2.49,2.49 0 0 0 0.87,-1.07a3.67,3.67 0 0 0 0.31,-1.55a3.52,3.52 0 0 0 -0.33,-1.59a2.33,2.33 0 0 0 -0.89,-1a2.45,2.45 0 0 0 -1.23,-0.32a2.6,2.6 0 0 0 -1.19,0.2a11.54,11.54 0 0 0 -1,0.72a2,2 0 0 1 -1.11,0.51a1.22,1.22 0 0 1 -0.85,-0.35a1.07,1.07 0 0 1 -0.37,-0.78s0,-0.25 0.11,-0.66l0.82,-4.65a2.27,2.27 0 0 1 0.5,-1.22a1.65,1.65 0 0 1 1.21,-0.38l5.14,0c1,0 1.51,0.39 1.51,1.16a1,1 0 0 1 -0.37,0.81a1.63,1.63 0 0 1 -1.14,0.34z"/>
  <path fill="#ffffff" id="svg_17" d="m136.270001,33.79l3.19,-4.65l-2.69,-4.18a7.4,7.4 0 0 1 -0.56,-1a2,2 0 0 1 -0.19,-0.83a1,1 0 0 1 0.36,-0.73a1.27,1.27 0 0 1 0.89,-0.33a1.24,1.24 0 0 1 0.94,0.36a9.12,9.12 0 0 1 0.93,1.31l2.13,3.46l2.28,-3.46c0.19,-0.29 0.35,-0.54 0.49,-0.74a4.15,4.15 0 0 1 0.38,-0.52a1.17,1.17 0 0 1 0.41,-0.3a1.25,1.25 0 0 1 0.53,-0.11a1.24,1.24 0 0 1 0.89,0.33a1,1 0 0 1 0.34,0.77a3.5,3.5 0 0 1 -0.74,1.77l-2.81,4.2l3,4.65a7.63,7.63 0 0 1 0.59,1a1.78,1.78 0 0 1 0.19,0.77a1.23,1.23 0 0 1 -0.17,0.62a1.15,1.15 0 0 1 -0.46,0.44a1.4,1.4 0 0 1 -0.68,0.17a1.31,1.31 0 0 1 -0.69,-0.17a1.43,1.43 0 0 1 -0.46,-0.42c-0.12,-0.17 -0.33,-0.5 -0.65,-1l-2.51,-4l-2.59,4.14l-0.44,0.68a2.23,2.23 0 0 1 -0.32,0.38a1.3,1.3 0 0 1 -0.43,0.29a1.57,1.57 0 0 1 -0.6,0.11a1.15,1.15 0 0 1 -1.21,-1.25a3.36,3.36 0 0 1 0.66,-1.76z"/>
  <path fill="#ffffff" id="svg_18" d="m161.440001,24.72l-4.62,0l-0.55,3.14a5.47,5.47 0 0 1 2.54,-0.73a4.4,4.4 0 0 1 1.75,0.34a4.65,4.65 0 0 1 1.42,1a4.41,4.41 0 0 1 1,1.46a4.61,4.61 0 0 1 0.35,1.82a5.25,5.25 0 0 1 -0.63,2.56a4.67,4.67 0 0 1 -1.82,1.84a5.46,5.46 0 0 1 -2.74,0.68a5.52,5.52 0 0 1 -2.83,-0.64a4,4 0 0 1 -1.53,-1.47a3.18,3.18 0 0 1 -0.45,-1.46a1,1 0 0 1 0.31,-0.71a1,1 0 0 1 0.79,-0.34a1.3,1.3 0 0 1 1.22,0.94a3.32,3.32 0 0 0 1.05,1.34a2.44,2.44 0 0 0 1.47,0.48a2.27,2.27 0 0 0 1.32,-0.38a2.64,2.64 0 0 0 0.87,-1.07a3.83,3.83 0 0 0 0.25,-1.56a3.52,3.52 0 0 0 -0.33,-1.59a2.31,2.31 0 0 0 -0.88,-1a2.46,2.46 0 0 0 -1.24,-0.32a2.65,2.65 0 0 0 -1.19,0.2a11.54,11.54 0 0 0 -1,0.72a2,2 0 0 1 -1.11,0.51a1.18,1.18 0 0 1 -0.84,-0.35a1,1 0 0 1 -0.37,-0.78s0,-0.25 0.1,-0.66l0.82,-4.65a2.2,2.2 0 0 1 0.51,-1.22a1.61,1.61 0 0 1 1.2,-0.38l5.13,0c1,0 1.51,0.39 1.51,1.16a1,1 0 0 1 -0.37,0.81a1.6,1.6 0 0 1 -1.11,0.31z"/>
 </g>
</svg>