<?xml version="1.0" encoding="UTF-8"?>
<svg width="24px" height="25px" viewBox="0 0 24 25" version="1.1" xmlns="http://www.w3.org/2000/svg" xmlns:xlink="http://www.w3.org/1999/xlink">
    <!-- Generator: Sketch 51.2 (57519) - http://www.bohemiancoding.com/sketch -->
    <title>logout</title>
    <desc>Created with Sketch.</desc>
    <defs></defs>
    <g id="Page-1" stroke="none" stroke-width="1" fill="none" fill-rule="evenodd">
        <g id="Channels" transform="translate(-44.000000, -803.000000)" fill="#FFFFFF" fill-rule="nonzero">
            <g id="logout" transform="translate(44.000000, 803.000000)">
                <path d="M23.9242639,10.6177786 C23.8732575,10.4957546 23.8002639,10.384747 23.7072522,10.2917406 L20.7078593,7.29252 C20.3168258,6.90249333 19.6847307,6.90249333 19.2936971,7.29252 C18.9026635,7.6835311 18.9026635,8.31657438 19.2936971,8.70660104 L20.5868598,9.99968943 L15.0001102,9.99968943 C14.4470562,9.99968943 14,10.4477044 14,10.9997422 C14,11.5517799 14.4470562,11.9997949 15.0001102,11.9997949 L20.5868129,11.9997949 L19.2936502,13.2928833 C18.9026167,13.6838944 18.9026167,14.3169377 19.2936502,14.7069643 C19.4886747,14.9029621 19.7446913,15 20.0007548,15 C20.2568182,15 20.5128348,14.903009 20.7078593,14.7069643 L23.7072522,11.7077437 C23.8002639,11.6157218 23.8732575,11.5047142 23.9242639,11.3817058 C24.0252454,11.1377985 24.0252454,10.8617796 23.9242639,10.6177786 Z" id="Shape"></path>
                <path d="M17.000013,14.5833211 C16.4470272,14.5833211 16.000026,15.0499706 16.000026,15.6249695 L16.000026,20.8333089 L12.0000313,20.8333089 L12.0000313,4.16664225 C12.0000313,3.70726815 11.7100149,3.30101894 11.2870138,3.16874381 L7.8139891,2.08334554 L16.000026,2.08334554 L16.000026,7.29168498 C16.000026,7.86668385 16.4470272,8.33333333 17.000013,8.33333333 C17.5529988,8.33333333 18,7.86668385 18,7.29168498 L18,1.04169718 C18,0.466649479 17.5529988,0 17.000013,0 L0.999986979,0 C0.963986885,0 0.931971177,0.0156249695 0.897002336,0.019775352 C0.849986589,0.0249999512 0.807002102,0.0333007162 0.762001984,0.0447753032 C0.657001711,0.0729002482 0.561985839,0.115624774 0.473016857,0.173925442 C0.451032425,0.188525022 0.424032354,0.189550411 0.4030323,0.206200769 C0.394969779,0.212499585 0.391969771,0.223974172 0.383954125,0.23022416 C0.274969466,0.319774766 0.183984854,0.429149552 0.117984682,0.559373907 C0.103969021,0.587498853 0.100969013,0.617723403 0.0900002344,0.646873737 C0.057984526,0.726023973 0.0230156849,0.803123431 0.0110156537,0.890623261 C0.00600001563,0.921873199 0.0150000391,0.951023533 0.0140156615,0.981248083 C0.0130312839,1.00209765 0,1.02084762 0,1.04164836 L0,21.8749573 C0,22.3718313 0.336985253,22.7989301 0.804002094,22.8958049 L10.8040125,24.9791504 C10.8690283,24.99375 10.9350285,25 10.9999974,25 C11.2289824,25 11.453983,24.9177248 11.6339834,24.7635259 C11.864984,24.5656258 11.9999844,24.2708022 11.9999844,23.9583028 L11.9999844,22.9166545 L17.000013,22.9166545 C17.5529988,22.9166545 18,22.450005 18,21.8750061 L18,15.6249695 C18,15.0499706 17.5529988,14.5833211 17.000013,14.5833211 Z" id="Shape"></path>
            </g>
        </g>
    </g>
</svg>